<svg width="146" height="112" viewBox="0 0 146 112" fill="none" xmlns="http://www.w3.org/2000/svg">
<g id="slh">
<g id="Group">
<g id="Group_2">
<g id="Group_3">
<g id="Group_4">
<path id="Vector" d="M146 112H0V0H146V112ZM0.576164 111.427H145.424V0.573183H0.576164V111.427Z" fill="#282828"/>
</g>
<g id="Group_5">
<path id="Vector_2" d="M125.527 102.141H128.062C128.216 102.141 128.369 102.141 128.523 102.141C128.677 102.141 128.869 102.141 129.022 102.179C129.176 102.179 129.368 102.179 129.522 102.218C129.675 102.218 129.867 102.218 129.983 102.218C130.328 102.218 130.636 102.218 130.905 102.218C131.173 102.218 131.404 102.179 131.634 102.141C131.865 102.103 132.057 102.065 132.287 102.026C132.518 101.95 132.71 101.874 132.979 101.759C133.401 101.568 133.824 101.339 134.169 101.071C134.554 100.765 134.861 100.422 135.13 100.039C135.399 99.6573 135.629 99.1987 135.783 98.6638C135.936 98.1288 136.013 97.5556 136.013 96.906C136.013 96.3328 135.936 95.7979 135.821 95.3011C135.706 94.8043 135.475 94.3076 135.207 93.8872C134.938 93.4669 134.554 93.0848 134.131 92.7409C133.709 92.397 133.171 92.1295 132.556 91.9384C132.364 91.862 132.134 91.8238 131.98 91.7856C131.788 91.7474 131.596 91.7092 131.404 91.6709C131.212 91.6327 130.981 91.6327 130.751 91.6327C130.52 91.6327 130.252 91.6327 129.944 91.6327C129.791 91.6327 129.675 91.6327 129.522 91.6327C129.368 91.6327 129.253 91.6327 129.099 91.6327C128.946 91.6327 128.83 91.6327 128.677 91.6709C128.523 91.6709 128.408 91.6709 128.254 91.6709H125.489V91.862H127.14V101.95H125.489V102.141H125.527ZM128.677 91.8238C128.869 91.8238 129.061 91.7856 129.253 91.7856C129.445 91.7856 129.675 91.7856 129.944 91.7856C130.789 91.7856 131.481 91.9002 132.057 92.1677C132.633 92.397 133.094 92.7791 133.401 93.1994C133.747 93.658 133.977 94.1929 134.131 94.8425C134.285 95.4922 134.361 96.18 134.361 96.9824C134.361 97.632 134.285 98.2434 134.169 98.8166C134.054 99.3898 133.824 99.9248 133.516 100.46C133.324 100.804 133.056 101.071 132.825 101.3C132.556 101.53 132.287 101.683 131.98 101.797C131.673 101.912 131.365 101.988 131.02 102.026C130.674 102.065 130.367 102.065 130.021 102.065C129.752 102.065 129.522 102.065 129.291 102.065C129.061 102.065 128.869 102.026 128.715 102.026V91.8238H128.677ZM114.734 102.141H123.837V98.893H123.683C123.453 99.8484 123.107 100.574 122.608 101.109C122.108 101.644 121.417 101.912 120.572 101.912H117.922V91.7856H119.573V91.6327H114.772V91.8238H116.424V101.95H114.772V102.141H114.734ZM103.402 102.141H108.204V101.95H106.552V96.6003H108.05C108.204 96.6003 108.434 96.6003 108.626 96.6385C108.857 96.6767 109.087 96.7532 109.279 96.8678C109.51 96.9824 109.663 97.2117 109.855 97.4792C110.009 97.7467 110.124 98.1288 110.163 98.6256L110.278 99.963C110.316 100.345 110.355 100.651 110.431 100.957C110.508 101.224 110.624 101.491 110.777 101.683C110.931 101.874 111.161 102.026 111.392 102.103C111.661 102.218 111.968 102.256 112.39 102.256C112.582 102.256 112.775 102.256 112.928 102.218C113.082 102.179 113.197 102.179 113.312 102.103C113.428 102.065 113.504 102.026 113.543 101.988C113.62 101.95 113.658 101.912 113.696 101.874L113.581 101.721C113.466 101.835 113.351 101.912 113.197 101.95C113.043 101.988 112.928 102.026 112.813 102.026C112.544 102.026 112.314 101.912 112.198 101.721C112.083 101.53 111.968 101.3 111.93 101.033C111.891 100.88 111.853 100.651 111.853 100.422C111.853 100.192 111.814 99.9248 111.814 99.6573C111.814 99.3898 111.776 99.1223 111.737 98.893C111.699 98.6256 111.661 98.4345 111.622 98.2052C111.507 97.8613 111.353 97.5938 111.123 97.3646C110.892 97.1353 110.624 96.9824 110.355 96.8678C110.086 96.7532 109.778 96.6385 109.51 96.6003C109.241 96.5621 109.01 96.5239 108.857 96.4857V96.4475C109.433 96.371 109.894 96.2564 110.239 96.0271C110.585 95.8361 110.854 95.6068 111.046 95.3775C111.238 95.1482 111.353 94.919 111.392 94.6515C111.43 94.4222 111.469 94.2312 111.469 94.0783C111.469 93.7726 111.392 93.4669 111.238 93.123C111.084 92.7791 110.854 92.4734 110.508 92.2059C110.124 91.9002 109.702 91.7091 109.241 91.6327C108.78 91.5563 108.28 91.5181 107.704 91.5181C107.589 91.5181 107.474 91.5181 107.359 91.5181C107.243 91.5181 107.128 91.5181 107.013 91.5181C106.898 91.5181 106.782 91.5181 106.667 91.5563C106.552 91.5563 106.437 91.5563 106.321 91.5563H103.479V91.7474H105.131V101.95H103.479V102.141H103.402ZM106.552 91.8238C106.667 91.7856 106.821 91.7856 107.013 91.7856C107.205 91.7856 107.397 91.7856 107.551 91.7856C107.82 91.7856 108.088 91.8238 108.319 91.862C108.588 91.9002 108.818 92.0148 109.049 92.1677C109.279 92.3205 109.433 92.5498 109.586 92.8555C109.702 93.1612 109.778 93.5815 109.778 94.0783C109.778 94.5369 109.74 94.919 109.663 95.1865C109.586 95.4922 109.433 95.7214 109.279 95.8743C109.126 96.0653 108.933 96.18 108.703 96.2564C108.473 96.3328 108.204 96.371 107.935 96.371H106.552V91.8238ZM91.3797 98.9313C91.6485 99.5809 91.9942 100.192 92.4552 100.689C92.9161 101.186 93.4538 101.606 94.1068 101.912C94.7598 102.218 95.4128 102.37 96.181 102.37C96.9108 102.37 97.6022 102.218 98.2168 101.912C98.8314 101.606 99.4075 101.186 99.8685 100.651C100.329 100.154 100.714 99.5427 100.982 98.893C101.251 98.2434 101.367 97.5556 101.367 96.8678C101.367 96.0653 101.213 95.3393 100.944 94.6897C100.637 94.0019 100.253 93.4287 99.7916 92.9319C99.2923 92.4352 98.7545 92.0531 98.14 91.7856C97.5254 91.5181 96.8724 91.3652 96.2194 91.3652C95.6048 91.3652 94.9903 91.5181 94.3757 91.7856C93.7611 92.0531 93.2234 92.4734 92.724 92.9319C92.2247 93.4287 91.8406 94.0019 91.5333 94.6897C91.226 95.3775 91.0723 96.1036 91.0723 96.8678C90.9955 97.5938 91.1108 98.2817 91.3797 98.9313ZM92.8393 94.8808C92.9161 94.2312 93.1081 93.658 93.3386 93.1612C93.6075 92.6645 93.9532 92.2823 94.3757 91.9766C94.8366 91.6709 95.4128 91.5181 96.1426 91.5181C96.8724 91.5181 97.4486 91.6709 97.9095 91.9766C98.3704 92.2823 98.7161 92.6645 98.985 93.1612C99.2539 93.658 99.4075 94.2312 99.4844 94.8808C99.5612 95.5304 99.638 96.18 99.638 96.8678C99.638 97.7467 99.5612 98.5491 99.446 99.1987C99.3307 99.8483 99.1387 100.422 98.8698 100.842C98.6009 101.3 98.2168 101.606 97.7943 101.835C97.3717 102.065 96.834 102.179 96.181 102.179C95.528 102.179 94.9903 102.065 94.5678 101.835C94.1452 101.606 93.7611 101.3 93.4923 100.842C93.2234 100.383 93.0313 99.8483 92.9161 99.1987C92.8009 98.5491 92.724 97.7467 92.724 96.8678C92.6856 96.18 92.7624 95.5304 92.8393 94.8808ZM73.5186 91.8238H74.8629L78.6656 102.37H79.0497L81.6233 95.2629H81.6617L84.2352 102.37H84.6193L88.4604 91.8238H89.8048V91.6327H86.6167V91.8238H88.1915L85.0802 100.422H85.0418L81.969 91.8238H83.5822V91.6327H79.1265V91.8238H80.3941L81.508 94.9572L79.5107 100.422L76.4378 91.8238H77.9742V91.6327H73.4801V91.8238H73.5186ZM59.6522 102.141H68.7172V98.893H68.5635C68.5251 99.1223 68.4483 99.3898 68.3715 99.7337C68.2563 100.078 68.1026 100.422 67.8721 100.727C67.6417 101.033 67.3344 101.339 66.9887 101.568C66.643 101.797 66.1821 101.912 65.6443 101.912H62.8403V96.5621H64.0311C64.3768 96.5621 64.684 96.6385 64.9145 96.7532C65.145 96.8678 65.2986 97.0589 65.4523 97.2499C65.5675 97.441 65.6827 97.7085 65.7595 97.976C65.8364 98.2434 65.9132 98.5109 65.99 98.8166H66.1437V94.2312H65.99C65.8748 94.6897 65.7596 95.0336 65.6443 95.3011C65.5291 95.5686 65.3754 95.7979 65.2218 95.9507C65.0681 96.1035 64.8761 96.2182 64.6456 96.2946C64.4152 96.371 64.1463 96.371 63.8006 96.371H62.8403V91.7856H65.2986C65.7211 91.7856 66.0668 91.8238 66.3357 91.9384C66.6046 92.0531 66.8734 92.2059 67.0655 92.397C67.2576 92.588 67.4496 92.8555 67.6033 93.123C67.7569 93.4287 67.8721 93.7344 68.0258 94.1547H68.1794V91.6327H59.6522V91.8238H61.3039V101.95H59.6522V102.141ZM46.9382 102.141H51.7396V101.95H50.0879V96.8678H55.0429V101.95H53.3912V102.141H58.1926V101.95H56.5409V91.8238H58.1926V91.6327H53.3912V91.8238H55.0429V96.6767H50.0879V91.8238H51.7396V91.6327H46.9382V91.8238H48.5898V101.95H46.9382V102.141ZM38.4109 102.141H43.2123V101.95H41.5606V91.8238H42.4057C42.5977 91.8238 42.8282 91.8238 43.0587 91.862C43.2891 91.9002 43.558 91.9766 43.8269 92.1295C44.0958 92.2823 44.3262 92.5498 44.5567 92.8937C44.7872 93.2376 44.9792 93.6962 45.1713 94.3076H45.3249V91.6327H36.2599V94.3458H36.4136C36.5672 93.7344 36.7977 93.2758 37.0282 92.9319C37.2586 92.588 37.4891 92.3588 37.758 92.1677C38.0268 92.0148 38.2573 91.9002 38.5262 91.9002C38.7566 91.862 38.9871 91.862 39.1792 91.862H40.0242V101.95H38.4109V102.141ZM22.2399 102.141H27.0413V101.95H25.3896V96.8296H26.5804C26.9261 96.8296 27.2334 96.906 27.4638 97.0206C27.6943 97.1353 27.8479 97.3263 28.0016 97.5174C28.1552 97.7085 28.232 97.9759 28.3089 98.2434C28.3857 98.5109 28.4625 98.7784 28.5393 99.0841H28.693V94.4986H28.5393C28.4241 94.9572 28.3089 95.3011 28.1936 95.5686C28.0784 95.8361 27.9248 96.0653 27.7711 96.2182C27.6175 96.371 27.4254 96.4857 27.1949 96.5621C26.9645 96.6385 26.6956 96.6385 26.3499 96.6385H25.3896V91.862H27.8479C28.2705 91.862 28.6162 91.9002 28.885 92.0148C29.1539 92.1295 29.4228 92.2823 29.6148 92.4734C29.8069 92.6645 29.9989 92.9319 30.1526 93.1994C30.3062 93.5051 30.4215 93.8108 30.5751 94.2312H30.7288V91.6327H22.2015V91.8238H23.8532V101.95H22.2015V102.141H22.2399ZM10.2173 98.9313C10.4862 99.5809 10.8319 100.192 11.2928 100.689C11.7537 101.186 12.2915 101.606 12.9445 101.912C13.5975 102.218 14.2505 102.37 15.0187 102.37C15.7485 102.37 16.4015 102.218 17.0545 101.912C17.669 101.606 18.2452 101.186 18.7061 100.651C19.1671 100.154 19.5512 99.5427 19.8201 98.893C20.0889 98.2434 20.2042 97.5556 20.2042 96.8678C20.2042 96.0653 20.0505 95.3393 19.7816 94.6897C19.4744 94.0019 19.0902 93.4287 18.6293 92.9319C18.13 92.4352 17.5922 92.0531 16.9776 91.7856C16.3631 91.5181 15.7101 91.3652 15.0571 91.3652C14.4425 91.3652 13.8279 91.5181 13.2134 91.7856C12.5988 92.0531 12.061 92.4734 11.5617 92.9319C11.0624 93.4287 10.6782 94.0019 10.371 94.6897C10.0637 95.3775 9.91002 96.1036 9.91002 96.8678C9.8332 97.5938 9.94844 98.2817 10.2173 98.9313ZM11.6769 94.8808C11.7537 94.2312 11.9458 93.658 12.1763 93.1612C12.4452 92.6645 12.7908 92.2823 13.2134 91.9766C13.6743 91.6709 14.2505 91.5181 14.9803 91.5181C15.7101 91.5181 16.2862 91.6709 16.7472 91.9766C17.2081 92.2823 17.5538 92.6645 17.7843 93.1612C18.0531 93.658 18.2068 94.2312 18.2836 94.8808C18.3604 95.5304 18.3988 96.18 18.3988 96.8678C18.3988 97.7467 18.322 98.5491 18.2068 99.1987C18.0916 99.8483 17.8995 100.422 17.6306 100.842C17.3617 101.3 16.9776 101.606 16.5551 101.835C16.1326 102.065 15.5948 102.179 14.9419 102.179C14.2889 102.179 13.7511 102.065 13.3286 101.835C12.9061 101.606 12.522 101.3 12.2531 100.842C11.9842 100.383 11.7922 99.8483 11.6769 99.1987C11.5617 98.5491 11.4849 97.7467 11.4849 96.8678C11.5233 96.18 11.6001 95.5304 11.6769 94.8808Z" fill="#282828"/>
</g>
<g id="Group_6">
<path id="Vector_3" d="M118.575 30.1115H136.052V23.8829H135.744C135.322 25.6789 134.63 27.0928 133.67 28.1627C132.71 29.1944 131.404 29.7294 129.714 29.7294H124.644V10.2794H127.832V9.89728H118.613V10.2794H121.801V29.7294H118.613V30.1115H118.575ZM92.724 30.1115H110.201V23.8829H109.894C109.471 25.6789 108.741 27.0928 107.82 28.1627C106.859 29.1944 105.553 29.7294 103.863 29.7294H98.793V10.2794H101.981V9.89728H92.7624V10.2794H95.9505V29.7294H92.7624V30.1115H92.724ZM64.3767 30.1115H70.5225V29.7294H67.3344L70.3304 21.8195H76.9756L79.9716 29.7294H76.7835V30.1115H85.5796V29.7294H83.0445L75.2855 9.3623H74.5941L66.8735 29.7294H64.3767V30.1115ZM76.7835 21.4374H70.4841L73.6338 13.1453L76.7835 21.4374ZM33.9937 30.1115H40.754V29.7294H37.5659V10.6233H37.6043L44.4031 30.1498L51.2402 10.4322H51.2786V29.7294H48.0905V30.1115H57.3091V29.7294H54.121V10.2794H57.3091V9.89728H51.0097L45.709 25.1822L40.4083 9.89728H33.9937V10.2794H37.1818V29.7294H33.9937V30.1115ZM10.0253 30.1115H10.4478C10.5246 29.9205 10.6014 29.7676 10.7167 29.653C10.8319 29.5384 11.0239 29.5001 11.2928 29.5001C11.6001 29.5001 11.9842 29.5766 12.4452 29.7294C12.8677 29.8823 13.2902 29.9969 13.6743 30.1115C13.9816 30.188 14.2889 30.2644 14.5578 30.3408C14.8266 30.379 15.0955 30.4172 15.3644 30.4554C15.6333 30.4937 15.9021 30.5319 16.2094 30.5319C16.5167 30.5319 16.8624 30.5319 17.2849 30.5319C18.3989 30.5319 19.4359 30.3408 20.3194 29.9587C21.2028 29.5766 21.9711 29.0798 22.6241 28.4684C23.2386 27.857 23.738 27.131 24.0837 26.3285C24.4294 25.5261 24.583 24.6854 24.583 23.7683C24.583 22.813 24.391 22.0106 24.0069 21.3609C23.6227 20.7495 23.2002 20.2528 22.6625 19.8707C22.1247 19.4885 21.587 19.2211 21.0492 19.03C20.5114 18.8389 20.0505 18.6861 19.6664 18.5715L16.2094 17.5015C15.7101 17.3487 15.2107 17.1576 14.7498 16.9665C14.2505 16.7755 13.828 16.508 13.4438 16.2405C13.0597 15.9348 12.7524 15.5909 12.4836 15.1706C12.2531 14.7502 12.0995 14.2153 12.0995 13.6039C12.0995 12.8396 12.2531 12.2282 12.5604 11.7315C12.8677 11.2347 13.2518 10.8526 13.7511 10.5469C14.2121 10.2412 14.7498 10.0119 15.2876 9.89728C15.8253 9.78264 16.3631 9.70622 16.7856 9.70622C17.5922 9.70622 18.322 9.85906 18.9366 10.1265C19.5512 10.4322 20.0889 10.8144 20.5115 11.3111C20.934 11.8079 21.3181 12.3429 21.587 12.9925C21.8558 13.6421 22.0479 14.2917 22.1631 14.9795H22.5088V9.85906H22.1247C21.9711 10.1266 21.8558 10.2794 21.779 10.3558C21.7022 10.4322 21.5101 10.4705 21.2797 10.4705C21.0108 10.4705 20.7419 10.394 20.5115 10.3176C20.2426 10.203 19.9737 10.0883 19.628 9.93549C19.3207 9.78264 18.9366 9.668 18.4757 9.55337C18.0147 9.43873 17.477 9.40052 16.7856 9.40052C15.8637 9.40052 15.0187 9.55337 14.2505 9.85906C13.4823 10.1648 12.8293 10.5851 12.2531 11.1201C11.7153 11.655 11.2544 12.2664 10.9855 12.9925C10.6783 13.7185 10.5246 14.521 10.5246 15.3616C10.5246 16.6608 10.9087 17.7308 11.7153 18.495C12.522 19.2593 13.6743 19.9089 15.2107 20.3674L18.5141 21.3609C18.8982 21.4756 19.3207 21.6284 19.7816 21.8577C20.2426 22.0488 20.6267 22.3545 21.0108 22.6602C21.3949 23.0041 21.7022 23.3862 21.9711 23.8829C22.2015 24.3415 22.3552 24.9147 22.3552 25.6025C22.3552 26.061 22.2784 26.5578 22.1247 27.0928C21.9711 27.6277 21.7022 28.1245 21.3181 28.5831C20.934 29.0416 20.4346 29.4237 19.7816 29.7294C19.1287 30.0351 18.322 30.188 17.2849 30.188C16.9392 30.188 16.5551 30.188 16.1326 30.1498C15.7101 30.1498 15.2876 30.0733 14.8651 29.9587C14.4041 29.8441 13.9816 29.653 13.5207 29.4237C13.0981 29.1944 12.6756 28.8123 12.2531 28.3538C11.869 27.8952 11.4849 27.322 11.1392 26.6342C10.7935 25.9464 10.5246 25.0675 10.3326 24.0358H10.0253V30.1115Z" fill="#282828"/>
</g>
<g id="Group_7">
<path id="Vector_4" d="M94.5674 55.5603H103.786V55.1782H100.598V44.8991H103.44C103.748 44.8991 104.132 44.9373 104.593 44.9756C105.015 45.0138 105.438 45.1666 105.86 45.4341C106.283 45.6634 106.628 46.0837 106.936 46.5805C107.243 47.1154 107.435 47.8415 107.512 48.7968L107.704 51.3952C107.742 52.1213 107.858 52.7326 108.011 53.2676C108.165 53.8026 108.395 54.2611 108.703 54.6433C109.01 55.0254 109.394 55.2929 109.932 55.4839C110.431 55.675 111.084 55.7514 111.814 55.7514C112.198 55.7514 112.544 55.7132 112.813 55.675C113.081 55.6368 113.312 55.5603 113.504 55.4839C113.696 55.4075 113.85 55.3311 113.965 55.2546C114.08 55.1782 114.195 55.1018 114.311 55.0254L114.042 54.7197C113.85 54.9107 113.581 55.0636 113.312 55.1782C113.043 55.2929 112.774 55.3311 112.544 55.3311C112.006 55.3311 111.583 55.14 111.353 54.7197C111.123 54.3376 110.93 53.879 110.815 53.3822C110.738 53.0765 110.7 52.6562 110.662 52.1977C110.623 51.7391 110.585 51.2424 110.585 50.7074C110.546 50.2106 110.508 49.7139 110.469 49.2171C110.431 48.7204 110.354 48.3 110.239 47.9179C110.047 47.2683 109.74 46.7333 109.279 46.3512C108.818 45.9309 108.318 45.6252 107.781 45.3577C107.243 45.1284 106.705 44.9374 106.167 44.8227C105.63 44.7081 105.246 44.6316 104.938 44.5934V44.5552C106.052 44.4406 106.936 44.1731 107.589 43.791C108.242 43.4089 108.779 42.9885 109.125 42.53C109.471 42.0714 109.701 41.6129 109.817 41.1543C109.932 40.6958 109.97 40.3519 109.97 40.0462C109.97 39.473 109.817 38.8616 109.548 38.212C109.279 37.5624 108.779 36.9892 108.126 36.4924C107.397 35.9193 106.59 35.5371 105.707 35.4225C104.862 35.3079 103.863 35.2314 102.749 35.2314C102.518 35.2314 102.288 35.2314 102.058 35.2314C101.827 35.2314 101.597 35.2314 101.366 35.2314C101.136 35.2697 100.905 35.2697 100.675 35.2697C100.444 35.2697 100.214 35.2697 99.9833 35.2697H94.5674V35.6518H97.7555V55.1018H94.5674V55.5603ZM100.598 35.69C100.828 35.6518 101.136 35.6136 101.481 35.6136C101.827 35.6136 102.173 35.6136 102.518 35.6136C103.018 35.6136 103.517 35.6518 104.016 35.7664C104.516 35.8428 104.977 36.0721 105.399 36.3778C105.822 36.6835 106.129 37.1421 106.398 37.7152C106.667 38.3266 106.782 39.0909 106.782 40.0844C106.782 40.9633 106.705 41.6893 106.513 42.2625C106.36 42.8357 106.091 43.2942 105.783 43.5999C105.476 43.9438 105.092 44.1731 104.669 44.2877C104.247 44.4024 103.748 44.4788 103.21 44.4788H100.598V35.69Z" fill="#282828"/>
</g>
<g id="Group_8">
<path id="Vector_5" d="M10.0253 55.5609H27.5023V49.3323H27.195C26.7724 51.1283 26.081 52.5422 25.1208 53.6121C24.1605 54.6439 22.8545 55.1788 21.1644 55.1788H16.0942V35.7288H19.2823V35.3467H10.0637V35.7288H13.2518V55.1788H10.0637V55.5609H10.0253Z" fill="#282828"/>
</g>
<g id="Group_9">
<path id="Vector_6" d="M29 35.6906H32.1881V49.1413C32.1881 51.4722 32.8027 53.1536 33.9934 54.2999C35.1842 55.4081 36.9511 55.9813 39.2557 55.9813C40.7538 55.9813 41.9829 55.7902 42.8663 55.3699C43.7882 54.9495 44.4796 54.4146 45.0174 53.7268C45.5551 53.0389 45.9008 52.3511 46.0929 51.7015C46.2465 51.0519 46.3618 50.3259 46.3618 49.5234V35.7288H49.5499V35.3467H42.7895V35.7288H45.9776V48.9502C45.9776 49.638 45.9392 50.2112 45.9008 50.6698C45.824 51.1283 45.7472 51.5487 45.6704 51.8544C45.5551 52.1983 45.4399 52.4658 45.2863 52.7332C45.1326 52.9625 44.9789 53.23 44.7869 53.4593C44.2107 54.2617 43.4809 54.7967 42.6743 55.1406C41.8677 55.4463 40.9074 55.5992 39.8319 55.5992C39.0637 55.5992 38.4107 55.4845 37.7961 55.2935C37.2199 55.1024 36.7206 54.7585 36.2981 54.2617C35.914 53.765 35.6067 53.1536 35.4146 52.3511C35.2226 51.5487 35.1073 50.5934 35.1073 49.447V35.7288H38.2955V35.3467H29.0768V35.6906H29Z" fill="#282828"/>
</g>
<g id="Group_10">
<path id="Vector_7" d="M50.9717 55.5611H56.9638V55.1407H54.1982L59.691 46.0462L65.2606 55.1407H62.495V55.5611H71.099V55.1407H68.7175L61.5731 43.5624L66.3745 35.6907H69.1017V35.3086H63.148V35.6907H65.9135L61.3426 43.1803L56.7717 35.6907H59.4989V35.3086H50.9717V35.6907H53.3532L59.4605 45.6641L53.7373 55.1407H50.9717V55.5611Z" fill="#282828"/>
</g>
<g id="Group_11">
<path id="Vector_8" d="M72.5967 35.6906H75.7848V49.1413C75.7848 51.4722 76.3994 53.1536 77.5901 54.2999C78.8193 55.4081 80.5477 55.9813 82.8524 55.9813C84.3504 55.9813 85.5796 55.7902 86.5014 55.3699C87.4233 54.9495 88.1147 54.4146 88.6524 53.7268C89.1902 53.0389 89.5359 52.3511 89.728 51.7015C89.92 51.0519 89.9968 50.3259 89.9968 49.5234V35.7288H93.1849V35.3467H86.4246V35.7288H89.6127V48.9502C89.6127 49.638 89.5743 50.2112 89.5359 50.6698C89.4975 51.1283 89.3823 51.5487 89.3054 51.8544C89.1902 52.1983 89.075 52.4658 88.9213 52.7332C88.7677 52.9625 88.614 53.23 88.422 53.4593C87.8458 54.2617 87.116 54.7967 86.3094 55.1406C85.5028 55.4463 84.5425 55.5992 83.467 55.5992C82.6988 55.5992 82.0458 55.4845 81.4312 55.2935C80.855 55.1024 80.3557 54.7585 79.9332 54.2617C79.5491 53.765 79.2418 53.1536 79.0497 52.3511C78.8577 51.5487 78.7424 50.5934 78.7424 49.447V35.7288H81.9305V35.3467H72.7119V35.6906H72.5967Z" fill="#282828"/>
</g>
<g id="Group_12">
<path id="Vector_9" d="M121.685 55.5611H130.866V55.1407H127.716V46.0844L133.286 35.6907H136.051V35.3086H129.944V35.6907H132.825L127.409 45.7023L121.724 35.6907H124.566V35.3086H115.809V35.6907H118.421L124.835 47.0015V55.1407H121.685V55.5611Z" fill="#282828"/>
</g>
<g id="Group_13">
<g id="Group_14">
<path id="Vector_10" d="M100.253 80.9721H117.73V74.7435H117.422C117 76.5394 116.27 77.9533 115.348 79.0232C114.388 80.055 113.082 80.59 111.392 80.59H106.322V61.1399H109.51V60.7578H100.291V61.1399H103.479V80.5517H100.253V80.9721Z" fill="#282828"/>
</g>
<g id="Group_15">
<path id="Vector_11" d="M121.532 80.9719H121.955C122.032 80.7808 122.108 80.628 122.224 80.5133C122.339 80.3987 122.531 80.3223 122.8 80.3223C123.107 80.3223 123.491 80.3987 123.952 80.5516C124.375 80.7044 124.797 80.819 125.181 80.9337C125.489 81.0101 125.796 81.0865 126.065 81.163C126.334 81.2012 126.602 81.2394 126.871 81.2776C127.14 81.3158 127.409 81.354 127.716 81.354C128.024 81.354 128.369 81.354 128.792 81.354C129.906 81.354 130.943 81.163 131.826 80.7808C132.71 80.3987 133.478 79.902 134.131 79.2906C134.746 78.6792 135.245 77.9531 135.591 77.1507C135.936 76.3482 136.09 75.5075 136.09 74.5905C136.09 73.6351 135.898 72.8327 135.514 72.1831C135.13 71.5717 134.707 71.0749 134.169 70.6928C133.632 70.3107 133.094 70.0432 132.556 69.8521C132.018 69.6611 131.558 69.5082 131.173 69.3936L127.716 68.3237C127.217 68.1708 126.718 67.9797 126.257 67.7887C125.757 67.5976 125.335 67.3301 124.951 67.0627C124.567 66.757 124.259 66.413 123.991 65.9927C123.76 65.5724 123.606 65.0374 123.606 64.426C123.606 63.6618 123.76 63.0504 124.067 62.5536C124.375 62.0568 124.759 61.6747 125.258 61.369C125.719 61.0633 126.257 60.8341 126.795 60.7194C127.332 60.6048 127.87 60.5284 128.293 60.5284C129.099 60.5284 129.829 60.6812 130.444 60.9869C131.058 61.2926 131.596 61.6747 132.018 62.1715C132.441 62.6682 132.825 63.2032 133.094 63.8528C133.363 64.5024 133.555 65.152 133.67 65.8399H134.016V60.6812H133.632C133.478 60.9487 133.363 61.1015 133.286 61.178C133.209 61.2544 133.017 61.2926 132.787 61.2926C132.518 61.2926 132.249 61.2544 132.018 61.1398C131.75 61.0251 131.481 60.9105 131.135 60.7576C130.828 60.6048 130.405 60.4902 129.983 60.3755C129.522 60.2609 128.984 60.2227 128.293 60.2227C127.371 60.2227 126.526 60.3755 125.757 60.6812C124.989 60.9869 124.336 61.4072 123.76 61.9422C123.222 62.4772 122.761 63.0886 122.454 63.8146C122.147 64.5406 121.993 65.3431 121.993 66.1838C121.993 67.483 122.377 68.5529 123.184 69.3172C123.991 70.0814 125.143 70.731 126.679 71.1896L129.983 72.1831C130.367 72.2977 130.789 72.4506 131.25 72.6798C131.711 72.8709 132.095 73.1766 132.479 73.4823C132.863 73.8262 133.171 74.2083 133.44 74.7051C133.67 75.1636 133.824 75.7368 133.824 76.4246C133.824 76.8832 133.747 77.3799 133.593 77.9149C133.44 78.4499 133.171 78.9466 132.787 79.4052C132.403 79.8637 131.903 80.2459 131.25 80.5516C130.597 80.8573 129.791 81.0101 128.754 81.0101C128.408 81.0101 128.024 81.0101 127.601 80.9719C127.179 80.9719 126.756 80.8955 126.334 80.7808C125.873 80.6662 125.45 80.4751 124.989 80.2459C124.567 80.0166 124.144 79.6345 123.722 79.2141C123.338 78.7556 122.953 78.1824 122.608 77.4946C122.262 76.8068 121.993 75.9279 121.801 74.8962H121.494V80.9719H121.532Z" fill="#282828"/>
</g>
<g id="Group_16">
<path id="Vector_12" d="M10.0253 80.9722H19.2439V80.5519H16.0558V70.8077H25.5817V80.5519H22.3936V80.9722H31.6122V80.5519H28.4241V61.1018H31.6122V60.7197H22.3936V61.1018H25.5817V70.3874H16.0558V61.1018H19.2439V60.7197H10.0253V61.1018H13.2134V80.5519H10.0253V80.9722Z" fill="#282828"/>
</g>
<g id="Group_17">
<path id="Vector_13" d="M53.1608 66.6041C52.5846 65.3049 51.8548 64.1967 50.9329 63.2414C50.0111 62.2861 48.9356 61.5601 47.7448 61.0251C46.5541 60.4901 45.3249 60.2227 44.0574 60.2227C42.8666 60.2227 41.6759 60.4901 40.5236 61.0251C39.3328 61.5601 38.2957 62.3243 37.3355 63.2414C36.3752 64.1967 35.607 65.3049 35.0308 66.6041C34.4162 67.9033 34.1473 69.279 34.1473 70.8074C34.1473 72.1831 34.3778 73.4823 34.8771 74.7815C35.3765 76.0425 36.0679 77.1889 36.9513 78.1824C37.8348 79.1759 38.8719 79.9402 40.101 80.5133C41.3302 81.0865 42.6362 81.3922 44.0574 81.3922C45.4402 81.3922 46.7461 81.0865 47.9753 80.4751C49.2044 79.8637 50.2415 79.0613 51.125 78.0678C52.0084 77.0742 52.7382 75.9661 53.2376 74.6669C53.7369 73.4059 54.0058 72.1067 54.0058 70.7692C53.9674 69.279 53.6985 67.8651 53.1608 66.6041ZM50.3568 75.2783C50.1263 76.5393 49.7422 77.6092 49.2044 78.4499C48.6667 79.2906 47.9753 79.9402 47.1302 80.3605C46.2852 80.7808 45.2481 80.9719 44.0189 80.9719C42.7898 80.9719 41.7527 80.7808 40.9077 80.3605C40.0626 79.9402 39.3712 79.2906 38.8335 78.4499C38.2957 77.6092 37.9116 76.5393 37.6812 75.2783C37.4507 74.0173 37.3355 72.527 37.3355 70.8074C37.3355 69.5082 37.4123 68.2472 37.6043 67.0244C37.758 65.8016 38.1037 64.6935 38.603 63.7382C39.1024 62.7829 39.7553 62.0186 40.6388 61.4455C41.5222 60.8723 42.6362 60.6048 44.0189 60.6048C45.4017 60.6048 46.5541 60.8723 47.3991 61.4455C48.2826 62.0186 48.9356 62.7829 49.4349 63.7382C49.9342 64.6935 50.2415 65.8016 50.4336 67.0244C50.5872 68.2472 50.7025 69.5082 50.7025 70.8074C50.7025 72.527 50.5872 74.0173 50.3568 75.2783Z" fill="#282828"/>
</g>
<g id="Group_18">
<path id="Vector_14" d="M61.8803 80.972H71.099V80.5898H67.9109V61.1398H69.5625C69.9466 61.1398 70.3692 61.178 70.8301 61.2544C71.291 61.3309 71.7904 61.5219 72.2897 61.8276C72.7891 62.1333 73.25 62.5919 73.7109 63.2797C74.1719 63.9293 74.556 64.8464 74.8633 65.9928H75.1705V60.7959H57.7704V65.9928H58.0777C58.385 64.8464 58.7691 63.9293 59.23 63.2797C59.6909 62.6301 60.1519 62.1333 60.6128 61.8276C61.1121 61.5219 61.5731 61.3309 62.0724 61.2544C62.5333 61.178 62.9943 61.1398 63.34 61.1398H64.9916V80.5516H61.8035V80.972H61.8803Z" fill="#282828"/>
</g>
<g id="Group_19">
<path id="Vector_15" d="M79.0116 80.9723H96.4502V74.7437H96.1429C96.1045 75.1641 95.9508 75.7373 95.7588 76.3869C95.5667 77.0365 95.221 77.6861 94.7985 78.2975C94.376 78.9089 93.7998 79.4438 93.1084 79.9024C92.417 80.3609 91.5336 80.552 90.4965 80.552H85.0805V70.2729H87.3852C88.0766 70.2729 88.6143 70.3875 89.0753 70.6168C89.4978 70.8461 89.8435 71.19 90.1123 71.5721C90.3812 71.9542 90.5733 72.4128 90.7269 72.9478C90.8806 73.4445 90.9958 73.9795 91.1494 74.5527H91.4567V65.7257H91.1494C90.9574 66.5663 90.7269 67.2924 90.4965 67.8273C90.266 68.3623 89.9971 68.7826 89.6898 69.0883C89.3825 69.394 88.9984 69.6233 88.5759 69.7379C88.1534 69.8526 87.6157 69.8908 86.9627 69.8908H85.1189V61.102H89.8819C90.6501 61.102 91.3415 61.1784 91.8793 61.3695C92.417 61.5605 92.9164 61.8662 93.3005 62.2483C93.6846 62.6305 94.0303 63.1272 94.3376 63.6622C94.6064 64.2354 94.8753 64.885 95.1442 65.611H95.4515V60.6816H79.0884V61.0638H82.2765V80.552H79.0884V80.9723H79.0116Z" fill="#282828"/>
</g>
</g>
</g>
</g>
<g id="Group_20">
<path id="Vector_16" d="M136.551 91.6329C136.474 91.6329 136.436 91.6329 136.397 91.6329C136.359 91.6329 136.32 91.6712 136.282 91.7094C136.244 91.7476 136.205 91.7858 136.167 91.824C136.128 91.8622 136.128 91.9386 136.09 92.0151H136.052V91.5947H137.55V92.0151H137.511C137.473 91.9386 137.473 91.8622 137.434 91.824C137.396 91.7858 137.358 91.7476 137.319 91.7094C137.281 91.6712 137.242 91.6712 137.204 91.6329C137.165 91.6329 137.089 91.6329 137.05 91.6329H136.973V93.2761H137.204V93.3143H136.397V93.2761H136.628V91.6329H136.551Z" fill="#282828"/>
<path id="Vector_17" d="M138.356 91.5947L138.778 92.7793L139.201 91.5947H139.816V91.6329H139.585V93.2761H139.816V93.3143H139.009V93.2761H139.239V91.6329L138.663 93.3143H138.625L138.049 91.6329V93.2761H138.279V93.3143H137.818V93.2761H138.049V91.6329H137.818V91.5947H138.356Z" fill="#282828"/>
</g>
</g>
</g>
</svg>
